<svg xmlns="http://www.w3.org/2000/svg" viewBox="-10 -10 620 620">
  <polygon points="300,0 555,150 555,450 300,600 45,450 45,150" fill="#f0f0f0" stroke="#2c3e50" stroke-width="16"/>
  
  <g transform="translate(125, 150) scale(1.4)">
    <line x1="0" y1="150" x2="250" y2="150" stroke="#2c3e50" stroke-width="4"/>
    
    <polyline points="10,80 40,90 70,60 100,70" stroke="#4a90e2" stroke-width="6" fill="none"/>
    <rect x="10" y="40" width="90" height="110" fill="#4a90e2" fill-opacity="0.2" rx="5" ry="5"/>
    
    <line x1="100" y1="70" x2="140" y2="70" stroke="#2c3e50" stroke-width="2" stroke-dasharray="5,5"/>
    
    <polyline points="140,70 170,100 200,50 230,85" stroke="#e74c3c" stroke-width="6" fill="none"/>
    <rect x="140" y="40" width="90" height="110" fill="#e74c3c" fill-opacity="0.2" rx="5" ry="5"/>
    
    <circle cx="100" cy="70" r="5" fill="#2c3e50"/>
    <circle cx="140" cy="70" r="5" fill="#2c3e50"/>
    
    <text x="55" y="25" font-family="Arial" font-size="28" font-weight="bold" text-anchor="middle" fill="#4a90e2">1</text>
    <text x="185" y="25" font-family="Arial" font-size="28" font-weight="bold" text-anchor="middle" fill="#e74c3c">2</text>
  </g>
  
  <text x="300" y="430" font-family="Arial" font-size="60" font-weight="bold" text-anchor="middle" fill="#2c3e50">episodes</text>
</svg>
